<?xml version="1.0" encoding="iso-8859-1"?>
<!-- Generator: Adobe Illustrator 19.2.1, SVG Export Plug-In . SVG Version: 6.00 Build 0)  -->
<svg version="1.1" id="Layer_2" xmlns="http://www.w3.org/2000/svg" xmlns:xlink="http://www.w3.org/1999/xlink" x="0px" y="0px"
	 viewBox="0 0 39 30" xml:space="preserve" fill="#fff">
	<path d="M23.4625244,7.3447876v9.3743896c3.9622192,1.9047241,7.0802002-0.0023804,7.0802002-5.0338135
		c0-5.1618042-1.8255005-7.4530029-7.2077026-9.2932739C21.2189331,1.6812744,16.7971191,0.500061,14.0183716,0v27.9902954
		L20.9350586,30V6.5244141c0-1.1003418,0.493103-1.8348999,1.2876587-1.5812378
		C23.2599487,5.230957,23.4625244,6.2437134,23.4625244,7.3447876z M36.0863647,19.6677856
		c-2.6600952-1.0048828-6.0494385-1.3499146-8.8163452-1.0454712c-2.7685547,0.3052979-4.736084,0.9984741-4.736084,0.9984741
		l-0.3925781,0.132019v3.8047485l6.8104858-2.3897705c1.1616211-0.414917,2.8659058-0.5040283,3.807373-0.1962891
		c0.9415283,0.3076782,0.7643433,0.8927002-0.3956909,1.3068848l-10.222168,3.6290894v3.6655884l13.890686-4.9708862
		c0,0,1.8668823-0.6829834,2.6296997-1.6408691C39.4229736,22.0025635,39.0846558,20.6120605,36.0863647,19.6677856z
		 M0.7316284,21.8252563c-1.4025879,1.0366211-0.8492432,2.7015991,2.1878052,3.6990356
		c3.3015137,1.0842896,6.4675903,1.7440796,9.4824219,1.2131958c0.1956787-0.034729,0.40979-0.0717163,0.600769-0.1079102
		v-3.4091797l-2.802002,0.8283691c-1.1600952,0.4158325-2.8659058,0.5025024-3.807373,0.1956177
		c-0.9414062-0.3076782-0.7642822-0.8927002,0.395813-1.3068848l6.213562-2.1137085v-3.8101196L4.234314,20.1470947
		C4.234314,20.1470947,2.0289307,20.8673096,0.7316284,21.8252563z"/>
</svg>
