<?xml version="1.0" encoding="utf-8"?>
<!-- Generator: Adobe Illustrator 18.1.1, SVG Export Plug-In . SVG Version: 6.00 Build 0)  -->
<svg version="1.1" id="ie" xmlns="http://www.w3.org/2000/svg" xmlns:xlink="http://www.w3.org/1999/xlink" x="0px" y="0px"
	 viewBox="0 0 851.406 337.595" enable-background="new 0 0 851.406 337.595" xml:space="preserve">
<g>
	<g>
		<g>
			<path fill="#FFFFFF" d="M362.302,267.89h13.247c12.228,0,20.266,7.303,20.266,19.927c0,12.681-8.038,20.04-20.266,20.04h-13.247
				V267.89z M375.153,302.989c9.001,0,14.889-5.321,14.889-15.172c0-9.794-5.944-15.059-14.889-15.059h-7.246v30.23H375.153z"/>
			<path fill="#FFFFFF" d="M403.91,279.212h5.321v4.981c0,1.188-0.113,2.151-0.113,2.151h0.113c1.302-4.189,4.642-7.473,9.058-7.473
				c0.735,0,1.415,0.113,1.415,0.113v5.434c0,0-0.736-0.17-1.585-0.17c-3.51,0-6.736,2.491-8.039,6.736
				c-0.51,1.642-0.679,3.397-0.679,5.151v11.719h-5.491V279.212z"/>
			<path fill="#FFFFFF" d="M425.932,267.89h5.548v5.604h-5.548V267.89z M425.988,279.212h5.491v28.645h-5.491V279.212z"/>
			<path fill="#FFFFFF" d="M437.027,279.212h5.831l6.963,19.36c0.565,1.585,0.905,3.906,0.962,3.906h0.113
				c0.057,0,0.453-2.321,1.02-3.906l6.963-19.36h5.774l-10.587,28.645h-6.34L437.027,279.212z"/>
			<path fill="#FFFFFF" d="M470.144,267.89h5.548v5.604h-5.548V267.89z M470.2,279.212h5.491v28.645H470.2V279.212z"/>
			<path fill="#FFFFFF" d="M485.145,279.212h5.321v3.793c0,1.132-0.113,2.095-0.113,2.095h0.113
				c1.132-2.491,4.528-6.567,10.756-6.567c6.736,0,9.85,3.68,9.85,10.983v18.342h-5.491V290.76c0-4.019-0.849-7.189-5.435-7.189
				c-4.358,0-7.868,2.888-9.058,7.02c-0.339,1.132-0.452,2.434-0.452,3.849v13.417h-5.491V279.212z"/>
			<path fill="#FFFFFF" d="M530.545,314.99c4.981,0,9.058-2.208,9.058-8.039v-2.094c0-0.906,0.057-1.812,0.057-1.812h-0.113
				c-1.698,2.83-4.359,4.472-8.491,4.472c-7.982,0-12.794-6.396-12.794-14.662c0-8.208,4.585-14.322,12.511-14.322
				c6.906,0,9.001,4.246,9.001,4.246h0.113c0,0-0.057-0.396-0.057-0.906v-2.66h5.265v27.456c0,9.453-7.19,13.076-14.436,13.076
				c-3.453,0-7.019-0.962-9.794-2.377l1.811-4.303C522.676,313.065,526.242,314.99,530.545,314.99z M539.716,292.911
				c0-7.473-3.623-9.623-8.096-9.623c-4.981,0-7.812,3.623-7.812,9.453c0,5.944,3.17,10.02,8.321,10.02
				C536.093,302.762,539.716,300.384,539.716,292.911z"/>
			<path fill="#FFFFFF" d="M571.076,267.89h5.604v39.967h-5.604V267.89z"/>
			<path fill="#FFFFFF" d="M587.267,279.212h5.321v3.793c0,1.132-0.113,2.095-0.113,2.095h0.113
				c1.132-2.491,4.528-6.567,10.756-6.567c6.736,0,9.85,3.68,9.85,10.983v18.342h-5.491V290.76c0-4.019-0.849-7.189-5.435-7.189
				c-4.358,0-7.868,2.888-9.058,7.02c-0.339,1.132-0.452,2.434-0.452,3.849v13.417h-5.491V279.212z"/>
			<path fill="#FFFFFF" d="M622.251,279.212h5.321v3.793c0,1.132-0.113,2.095-0.113,2.095h0.113
				c1.132-2.491,4.528-6.567,10.756-6.567c6.736,0,9.85,3.68,9.85,10.983v18.342h-5.491V290.76c0-4.019-0.849-7.189-5.435-7.189
				c-4.358,0-7.868,2.888-9.058,7.02c-0.339,1.132-0.452,2.434-0.452,3.849v13.417h-5.491V279.212z"/>
			<path fill="#FFFFFF" d="M670.596,278.533c8.549,0,15.455,6.284,15.455,14.945c0,8.718-6.906,15.059-15.455,15.059
				c-8.548,0-15.454-6.341-15.454-15.059C655.142,284.817,662.048,278.533,670.596,278.533z M670.596,303.781
				c5.435,0,9.851-4.302,9.851-10.303c0-5.944-4.416-10.189-9.851-10.189c-5.378,0-9.85,4.245-9.85,10.189
				C660.746,299.479,665.218,303.781,670.596,303.781z"/>
			<path fill="#FFFFFF" d="M689.503,279.212h5.831l6.963,19.36c0.565,1.585,0.905,3.906,0.962,3.906h0.113
				c0.057,0,0.453-2.321,1.02-3.906l6.963-19.36h5.774l-10.587,28.645h-6.34L689.503,279.212z"/>
			<path fill="#FFFFFF" d="M737.621,289.968h1.246v-0.51c0-4.698-2.661-6.283-6.284-6.283c-4.415,0-7.981,2.773-7.981,2.773
				l-2.265-4.02c0,0,4.133-3.397,10.699-3.397c7.246,0,11.322,3.963,11.322,11.209v18.115h-5.096v-2.717
				c0-1.303,0.113-2.265,0.113-2.265h-0.113c0,0-2.32,5.661-9.17,5.661c-4.926,0-9.737-3.001-9.737-8.719
				C720.356,290.365,732.81,289.968,737.621,289.968z M731.281,304.121c4.642,0,7.643-4.868,7.643-9.114v-0.905h-1.416
				c-4.132,0-11.604,0.282-11.604,5.435C725.904,301.856,727.715,304.121,731.281,304.121z"/>
			<path fill="#FFFFFF" d="M754.435,284.024h-3.736v-4.415h3.906v-8.266h5.321v8.266h6.906v4.415h-6.906v12.737
				c0,5.718,4.02,6.454,6.114,6.454c0.792,0,1.302-0.113,1.302-0.113v4.868c0,0-0.793,0.113-1.925,0.113
				c-3.68,0-10.982-1.133-10.982-10.699V284.024z"/>
			<path fill="#FFFFFF" d="M774.305,267.89h5.548v5.604h-5.548V267.89z M774.362,279.212h5.491v28.645h-5.491V279.212z"/>
			<path fill="#FFFFFF" d="M802.665,278.533c8.549,0,15.455,6.284,15.455,14.945c0,8.718-6.906,15.059-15.455,15.059
				c-8.548,0-15.454-6.341-15.454-15.059C787.211,284.817,794.117,278.533,802.665,278.533z M802.665,303.781
				c5.435,0,9.851-4.302,9.851-10.303c0-5.944-4.416-10.189-9.851-10.189c-5.378,0-9.85,4.245-9.85,10.189
				C792.816,299.479,797.287,303.781,802.665,303.781z"/>
			<path fill="#FFFFFF" d="M825.48,279.212h5.321v3.793c0,1.132-0.113,2.095-0.113,2.095h0.113
				c1.132-2.491,4.528-6.567,10.756-6.567c6.736,0,9.85,3.68,9.85,10.983v18.342h-5.491V290.76c0-4.019-0.849-7.189-5.435-7.189
				c-4.358,0-7.868,2.888-9.058,7.02c-0.339,1.132-0.452,2.434-0.452,3.849v13.417h-5.491V279.212z"/>
		</g>
	</g>
	<g>
		<g>
			<path fill="#FFFFFF" d="M362.197,191.358h10.816v38.15c0,7.965,5.198,12.493,13.164,12.493c7.965,0,13.247-4.528,13.247-12.577
				v-38.066h10.816v38.15c0,13.332-9.643,22.387-23.98,22.387c-14.421,0-24.063-9.055-24.063-22.387V191.358z"/>
			<path fill="#FFFFFF" d="M425.753,191.358h10.816l22.555,34.377c2.265,3.438,4.947,9.224,4.947,9.224h0.168
				c0,0-0.587-5.702-0.587-9.224v-34.377h10.732v59.531h-10.732l-22.555-34.293c-2.265-3.439-4.947-9.224-4.947-9.224h-0.168
				c0,0,0.587,5.701,0.587,9.224v34.293h-10.816V191.358z"/>
			<path fill="#FFFFFF" d="M490.737,191.358h10.816v59.531h-10.816V191.358z"/>
			<path fill="#FFFFFF" d="M510.273,191.358h11.655l13.08,38.821c1.174,3.438,2.18,8.72,2.264,8.72h0.168
				c0.083,0,1.09-5.282,2.264-8.72l13.164-38.821h11.57l-21.716,59.531H531.99L510.273,191.358z"/>
			<path fill="#FFFFFF" d="M573.16,191.358h35.636v9.307h-24.819v15.596h20.04v9.307h-20.04v16.016h26.16v9.307H573.16V191.358z"/>
			<path fill="#FFFFFF" d="M622.631,191.358h19.201c6.456,0,9.391,0.503,11.99,1.677c5.953,2.684,9.727,8.385,9.727,16.267
				c0,7.127-3.773,13.751-10.062,16.266v0.168c0,0,0.838,0.839,2.012,2.935l12.242,22.22h-12.074l-11.822-22.22h-10.397v22.22
				h-10.816V191.358z M643.174,219.279c5.785,0,9.391-3.438,9.391-9.391c0-5.702-2.432-9.224-10.9-9.224h-8.217v18.614H643.174z"/>
			<path fill="#FFFFFF" d="M680.404,235.629c0,0,6.456,6.288,14.841,6.288c4.528,0,8.637-2.348,8.637-7.211
				c0-10.648-28.089-8.804-28.089-27.082c0-9.895,8.552-17.272,19.955-17.272c11.739,0,17.776,6.372,17.776,6.372l-4.696,8.804
				c0,0-5.701-5.198-13.163-5.198c-5.031,0-8.972,2.935-8.972,7.127c0,10.564,28.005,7.965,28.005,26.999
				c0,9.475-7.211,17.439-19.621,17.439c-13.247,0-20.542-8.133-20.542-8.133L680.404,235.629z"/>
			<path fill="#FFFFFF" d="M726.771,191.358h10.816v59.531h-10.816V191.358z"/>
			<path fill="#FFFFFF" d="M766.264,200.665h-19.537v-9.307h49.89v9.307H777.08v50.225h-10.816V200.665z"/>
			<path fill="#FFFFFF" d="M820.598,225.987l-19.788-34.629h12.241l9.308,17.523c1.928,3.689,3.521,8.05,3.605,7.966h0.167
				c0,0,1.677-4.276,3.606-7.966l9.224-17.523h12.241l-19.788,34.629v24.902h-10.815V225.987z"/>
		</g>
	</g>
	<g id="XMLID_2_">
		<g id="XMLID_28_">
			<path id="XMLID_9_" fill="#FFFFFF" d="M42.52,0c23.429,0,42.52,19.02,42.52,42.491s-19.09,42.549-42.52,42.549
				C19.033,85.039,0,65.962,0,42.491S19.033,0,42.52,0z"/>
		</g>
		<g id="XMLID_3_">
			<rect id="XMLID_7_" x="8.484" y="110.551" fill="#FFFFFF" width="68.032" height="221.102"/>
			<path id="XMLID_4_" fill="#FFFFFF" d="M319.663,221.803l-0.001-1.208c-0.233-64.086-43.085-115.95-113.068-115.95h0
				c-69.984,0-112.835,51.863-113.068,115.95l-0.002,1.208c0,70.384,54.491,115.792,122.605,115.792
				c35.42,0,71.293-15.892,93.09-43.593l-46.353-33.992c-12.229,14.337-27.664,25.819-49.915,25.819
				c-26.337,0-45.863-16.802-51.312-42.685h156.228C319.026,236.317,319.663,229.207,319.663,221.803z M208.359,192.04h-43.705
				c4.179-17.235,18.202-32.849,43.705-32.849c25.503,0,39.526,15.614,43.705,32.849H208.359z"/>
		</g>
	</g>
</g>
</svg>
